# xmcd CD database file
#
# Track frame offsets:
#	182
#	13237
#	28952
#	40975
#	52445
#	64665
#	84775
#	103345
#	114925
#	129732
#	146025
#	154985
#	170747
#	186382
#	199690
#	209360
#	224287
#	256695
#	268265
#	281235
#
# Disc length: 4006 seconds
#
# Revision: 1
# Processed by: cddbd v1.5.2PL0 Copyright (c) Steve Scherf et al.
# Submitted via: CDex 1.79
#
DISCID=430fa414
DTITLE=David Allan Coe - Human Emotions - Spectrum VII
DYEAR=1995
DGENRE=Country
TTITLE0=Would You Lay With Me (In A Field Of Stone)
TTITLE1=If This Is Just A Game
TTITLE2=You Can Count On Me
TTITLE3=Mississippi River Queen
TTITLE4=Tomorrow Is Another Day
TTITLE5=Human Emotions
TTITLE6=(She Finally Crossed Over) Love's Cheatin' Line
TTITLE7=Whiskey And Women
TTITLE8=Jack Daniels, If You Please
TTITLE9=Suicide
TTITLE10=Rollin' With The Punches
TTITLE11=On My Feet Again
TTITLE12=Fall In Love With You
TTITLE13=What Can I Do
TTITLE14=Sudden Death
TTITLE15=Fairytale Morning
TTITLE16=Seven Mile Bridge
TTITLE17=Now's The Time (To Fall In Love)
TTITLE18=Love Is Just A Propose
TTITLE19=Please Come To Boston
EXTD=YEAR: 1995
EXTT0=
EXTT1=
EXTT2=
EXTT3=
EXTT4=
EXTT5=
EXTT6=
EXTT7=
EXTT8=
EXTT9=
EXTT10=
EXTT11=
EXTT12=
EXTT13=
EXTT14=
EXTT15=
EXTT16=
EXTT17=
EXTT18=
EXTT19=
PLAYORDER=
